REM DIRINDEX 1\2,1\3,1\4,1\5
REM DIRNAME folder01,folder02,folder03,folder04,folder05
TITLE ""
FILE "P1Q_t_1100-1109.mp3" MP3
  TRACK 01 AUDIO
    TITLE "3:cjc005_4206"
    INDEX 01 00:00:00
  TRACK 02 AUDIO
    TITLE "0:"
    INDEX 01 00:01:07
  TRACK 03 AUDIO
    TITLE "4:cjc005_4207"
    INDEX 01 00:01:34
  TRACK 04 AUDIO
    TITLE "0:"
    INDEX 01 00:03:37
  TRACK 05 AUDIO
    TITLE "5:cjc005_4208"
    INDEX 01 00:03:61
  TRACK 06 AUDIO
    TITLE "0:"
    INDEX 01 00:08:24
  TRACK 07 AUDIO
    TITLE "3:cjc005_4209"
    INDEX 01 00:08:68
  TRACK 08 AUDIO
    TITLE "0:"
    INDEX 01 00:10:04
  TRACK 09 AUDIO
    TITLE "4:cjc005_4210"
    INDEX 01 00:10:27
  TRACK 10 AUDIO
    TITLE "0:"
    INDEX 01 00:11:46
  TRACK 11 AUDIO
    TITLE "5:cjc005_4211"
    INDEX 01 00:11:70
  TRACK 12 AUDIO
    TITLE "0:"
    INDEX 01 00:14:74
  TRACK 13 AUDIO
    TITLE "3:cjc005_4212"
    INDEX 01 00:15:42
  TRACK 14 AUDIO
    TITLE "0:"
    INDEX 01 00:16:48
  TRACK 15 AUDIO
    TITLE "4:cjc005_4213"
    INDEX 01 00:16:73
  TRACK 16 AUDIO
    TITLE "0:"
    INDEX 01 00:18:25
  TRACK 17 AUDIO
    TITLE "5:cjc005_4214"
    INDEX 01 00:18:50
  TRACK 18 AUDIO
    TITLE "0:"
    INDEX 01 00:22:40
  TRACK 19 AUDIO
    TITLE "3:cjc005_4215"
    INDEX 01 00:23:14
  TRACK 20 AUDIO
    TITLE "0:"
    INDEX 01 00:24:16
  TRACK 21 AUDIO
    TITLE "4:cjc005_4216"
    INDEX 01 00:24:41
  TRACK 22 AUDIO
    TITLE "0:"
    INDEX 01 00:26:26
  TRACK 23 AUDIO
    TITLE "5:cjc005_4217"
    INDEX 01 00:26:48
  TRACK 24 AUDIO
    TITLE "0:"
    INDEX 01 00:30:32
  TRACK 25 AUDIO
    TITLE "3:cjc005_4218"
    INDEX 01 00:31:12
  TRACK 26 AUDIO
    TITLE "0:"
    INDEX 01 00:32:31
  TRACK 27 AUDIO
    TITLE "4:cjc005_4219"
    INDEX 01 00:32:54
  TRACK 28 AUDIO
    TITLE "0:"
    INDEX 01 00:33:68
  TRACK 29 AUDIO
    TITLE "5:cjc005_4220"
    INDEX 01 00:34:10
  TRACK 30 AUDIO
    TITLE "0:"
    INDEX 01 00:39:51
  TRACK 31 AUDIO
    TITLE "3:cjc005_4221"
    INDEX 01 00:40:23
  TRACK 32 AUDIO
    TITLE "0:"
    INDEX 01 00:41:22
  TRACK 33 AUDIO
    TITLE "4:cjc005_4222"
    INDEX 01 00:41:51
  TRACK 34 AUDIO
    TITLE "0:"
    INDEX 01 00:43:29
  TRACK 35 AUDIO
    TITLE "5:cjc005_4223"
    INDEX 01 00:43:52
  TRACK 36 AUDIO
    TITLE "0:"
    INDEX 01 00:46:58
  TRACK 37 AUDIO
    TITLE "3:cjc005_4224"
    INDEX 01 00:47:38
  TRACK 38 AUDIO
    TITLE "0:"
    INDEX 01 00:48:55
  TRACK 39 AUDIO
    TITLE "4:cjc005_4225"
    INDEX 01 00:49:08
  TRACK 40 AUDIO
    TITLE "0:"
    INDEX 01 00:50:11
  TRACK 41 AUDIO
    TITLE "5:cjc005_4226"
    INDEX 01 00:50:35
  TRACK 42 AUDIO
    TITLE "0:"
    INDEX 01 00:54:46
  TRACK 43 AUDIO
    TITLE "3:cjc005_4227"
    INDEX 01 00:55:32
  TRACK 44 AUDIO
    TITLE "0:"
    INDEX 01 00:56:41
  TRACK 45 AUDIO
    TITLE "4:cjc005_4228"
    INDEX 01 00:56:69
  TRACK 46 AUDIO
    TITLE "0:"
    INDEX 01 00:58:13
  TRACK 47 AUDIO
    TITLE "5:cjc005_4229"
    INDEX 01 00:58:34
  TRACK 48 AUDIO
    TITLE "0:"
    INDEX 01 01:01:56
  TRACK 49 AUDIO
    TITLE "3:cjc005_4230"
    INDEX 01 01:02:38
  TRACK 50 AUDIO
    TITLE "0:"
    INDEX 01 01:03:61
  TRACK 51 AUDIO
    TITLE "4:cjc005_4231"
    INDEX 01 01:04:13
  TRACK 52 AUDIO
    TITLE "0:"
    INDEX 01 01:05:11
  TRACK 53 AUDIO
    TITLE "5:cjc005_4232"
    INDEX 01 01:05:32
  TRACK 54 AUDIO
    TITLE "0:"
    INDEX 01 01:09:10
  TRACK 55 AUDIO
    TITLE "3:cjc005_4233"
    INDEX 01 01:09:57
  TRACK 56 AUDIO
    TITLE "0:"
    INDEX 01 01:11:19
  TRACK 57 AUDIO
    TITLE "4:cjc005_4234"
    INDEX 01 01:11:43
  TRACK 58 AUDIO
    TITLE "0:"
    INDEX 01 01:12:64
  TRACK 59 AUDIO
    TITLE "5:cjc005_4235"
    INDEX 01 01:13:12
  TRACK 60 AUDIO
    TITLE "0:"
    INDEX 01 01:17:14
